# xmcd
#
# Track frame offsets:
#	150
#	18763
#	34615
#	51584
#	67410
#
# Disc length: 1138 seconds
#
# Revision: 0
# Processed by: cddbd v1.5.2PL0 Copyright (c) Steve Scherf et al.
# Submitted via: audiograbber 1.83.01
#
DISCID=42047005
DTITLE=The Burlesque Trio - Keeping The Pimp Hand Strong
DYEAR=2008
DGENRE=Blues
TTITLE0=Murder
TTITLE1=Help Me
TTITLE2=What you going to do (Sick and tired)
TTITLE3=Don't Start Me Talking
TTITLE4=Too Close Together
EXTD=
EXTT0=
EXTT1=
EXTT2=
EXTT3=
EXTT4=
PLAYORDER=
